<svg xmlns="http://www.w3.org/2000/svg" xmlns:xlink="http://www.w3.org/1999/xlink" viewBox="1 27 431 96" preserveAspectRatio="xMidYMid meet" version="1.0"><defs><g/><clipPath id="820af33a0f"><path d="M 2.398438 28.363281 L 94 28.363281 L 94 100 L 2.398438 100 Z M 2.398438 28.363281 " clip-rule="nonzero"/></clipPath><clipPath id="b662a44641"><path d="M 10 76 L 88 76 L 88 121.363281 L 10 121.363281 Z M 10 76 " clip-rule="nonzero"/></clipPath><clipPath id="a75e9e271a"><path d="M 72 63 L 125.398438 63 L 125.398438 100 L 72 100 Z M 72 63 " clip-rule="nonzero"/></clipPath></defs><g fill="#0b1f3a" fill-opacity="1"><g transform="translate(125.030255, 94.499996)"><g><path d="M 41.890625 0 L 32.71875 0 L 29.078125 -9.484375 L 12.390625 -9.484375 L 8.9375 0 L 0 0 L 16.265625 -41.75 L 25.171875 -41.75 Z M 26.375 -16.515625 L 20.625 -32.015625 L 14.984375 -16.515625 Z M 26.375 -16.515625 "/></g></g></g><g fill="#0b1f3a" fill-opacity="1"><g transform="translate(167.850233, 94.499996)"><g><path d="M 4.1875 0 L 4.1875 -41.75 L 12.1875 -41.75 L 12.1875 0 Z M 4.1875 0 "/></g></g></g><g fill="#0b1f3a" fill-opacity="1"><g transform="translate(184.754666, 94.499996)"><g><path d="M 3.953125 -30.25 L 11.421875 -30.25 L 11.421875 -25.796875 C 12.390625 -27.316406 13.695312 -28.550781 15.34375 -29.5 C 17 -30.457031 18.832031 -30.9375 20.84375 -30.9375 C 24.351562 -30.9375 27.332031 -29.554688 29.78125 -26.796875 C 32.238281 -24.046875 33.46875 -20.210938 33.46875 -15.296875 C 33.46875 -10.242188 32.234375 -6.316406 29.765625 -3.515625 C 27.296875 -0.710938 24.304688 0.6875 20.796875 0.6875 C 19.117188 0.6875 17.601562 0.351562 16.25 -0.3125 C 14.894531 -0.976562 13.46875 -2.117188 11.96875 -3.734375 L 11.96875 11.5 L 3.953125 11.5 Z M 11.875 -15.640625 C 11.875 -12.234375 12.546875 -9.71875 13.890625 -8.09375 C 15.242188 -6.476562 16.890625 -5.671875 18.828125 -5.671875 C 20.679688 -5.671875 22.222656 -6.414062 23.453125 -7.90625 C 24.691406 -9.394531 25.3125 -11.835938 25.3125 -15.234375 C 25.3125 -18.410156 24.675781 -20.765625 23.40625 -22.296875 C 22.132812 -23.835938 20.5625 -24.609375 18.6875 -24.609375 C 16.726562 -24.609375 15.101562 -23.851562 13.8125 -22.34375 C 12.519531 -20.832031 11.875 -18.597656 11.875 -15.640625 Z M 11.875 -15.640625 "/></g></g></g><g fill="#0b1f3a" fill-opacity="1"><g transform="translate(221.081519, 94.499996)"><g><path d="M 12.15625 -41.75 L 12.15625 -26.40625 C 14.738281 -29.425781 17.828125 -30.9375 21.421875 -30.9375 C 23.265625 -30.9375 24.925781 -30.59375 26.40625 -29.90625 C 27.882812 -29.21875 29 -28.34375 29.75 -27.28125 C 30.5 -26.21875 31.007812 -25.039062 31.28125 -23.75 C 31.5625 -22.457031 31.703125 -20.457031 31.703125 -17.75 L 31.703125 0 L 23.703125 0 L 23.703125 -15.984375 C 23.703125 -19.148438 23.546875 -21.160156 23.234375 -22.015625 C 22.929688 -22.867188 22.394531 -23.546875 21.625 -24.046875 C 20.863281 -24.554688 19.898438 -24.8125 18.734375 -24.8125 C 17.410156 -24.8125 16.222656 -24.488281 15.171875 -23.84375 C 14.128906 -23.195312 13.363281 -22.222656 12.875 -20.921875 C 12.394531 -19.617188 12.15625 -17.695312 12.15625 -15.15625 L 12.15625 0 L 4.15625 0 L 4.15625 -41.75 Z M 12.15625 -41.75 "/></g></g></g><g fill="#0b1f3a" fill-opacity="1"><g transform="translate(257.408371, 94.499996)"><g><path d="M 10.171875 -21.015625 L 2.90625 -22.328125 C 3.71875 -25.253906 5.117188 -27.421875 7.109375 -28.828125 C 9.109375 -30.234375 12.070312 -30.9375 16 -30.9375 C 19.570312 -30.9375 22.226562 -30.507812 23.96875 -29.65625 C 25.71875 -28.8125 26.945312 -27.738281 27.65625 -26.4375 C 28.375 -25.144531 28.734375 -22.757812 28.734375 -19.28125 L 28.65625 -9.9375 C 28.65625 -7.28125 28.78125 -5.320312 29.03125 -4.0625 C 29.289062 -2.800781 29.769531 -1.445312 30.46875 0 L 22.5625 0 C 22.351562 -0.53125 22.09375 -1.316406 21.78125 -2.359375 C 21.65625 -2.835938 21.5625 -3.148438 21.5 -3.296875 C 20.132812 -1.972656 18.671875 -0.976562 17.109375 -0.3125 C 15.554688 0.351562 13.894531 0.6875 12.125 0.6875 C 9.019531 0.6875 6.566406 -0.15625 4.765625 -1.84375 C 2.972656 -3.539062 2.078125 -5.679688 2.078125 -8.265625 C 2.078125 -9.972656 2.484375 -11.492188 3.296875 -12.828125 C 4.117188 -14.171875 5.265625 -15.195312 6.734375 -15.90625 C 8.203125 -16.613281 10.320312 -17.234375 13.09375 -17.765625 C 16.84375 -18.472656 19.4375 -19.128906 20.875 -19.734375 L 20.875 -20.53125 C 20.875 -22.070312 20.492188 -23.171875 19.734375 -23.828125 C 18.972656 -24.484375 17.539062 -24.8125 15.4375 -24.8125 C 14.007812 -24.8125 12.894531 -24.53125 12.09375 -23.96875 C 11.300781 -23.40625 10.660156 -22.421875 10.171875 -21.015625 Z M 20.875 -14.53125 C 19.851562 -14.1875 18.226562 -13.773438 16 -13.296875 C 13.78125 -12.828125 12.332031 -12.363281 11.65625 -11.90625 C 10.601562 -11.164062 10.078125 -10.222656 10.078125 -9.078125 C 10.078125 -7.960938 10.492188 -6.992188 11.328125 -6.171875 C 12.171875 -5.359375 13.238281 -4.953125 14.53125 -4.953125 C 15.96875 -4.953125 17.34375 -5.425781 18.65625 -6.375 C 19.625 -7.101562 20.257812 -7.988281 20.5625 -9.03125 C 20.769531 -9.707031 20.875 -11.007812 20.875 -12.9375 Z M 20.875 -14.53125 "/></g></g></g><g fill="#047857" fill-opacity="1"><g transform="translate(290.54587, 94.499996)"><g><path d="M 2.109375 -13.578125 L 10.3125 -14.375 C 10.800781 -11.625 11.800781 -9.601562 13.3125 -8.3125 C 14.820312 -7.019531 16.859375 -6.375 19.421875 -6.375 C 22.140625 -6.375 24.1875 -6.945312 25.5625 -8.09375 C 26.9375 -9.25 27.625 -10.59375 27.625 -12.125 C 27.625 -13.113281 27.332031 -13.953125 26.75 -14.640625 C 26.175781 -15.335938 25.164062 -15.945312 23.71875 -16.46875 C 22.738281 -16.800781 20.488281 -17.40625 16.96875 -18.28125 C 12.457031 -19.40625 9.289062 -20.785156 7.46875 -22.421875 C 4.894531 -24.710938 3.609375 -27.507812 3.609375 -30.8125 C 3.609375 -32.9375 4.210938 -34.925781 5.421875 -36.78125 C 6.628906 -38.632812 8.367188 -40.046875 10.640625 -41.015625 C 12.910156 -41.984375 15.648438 -42.46875 18.859375 -42.46875 C 24.097656 -42.46875 28.039062 -41.316406 30.6875 -39.015625 C 33.332031 -36.722656 34.722656 -33.65625 34.859375 -29.8125 L 26.4375 -29.453125 C 26.070312 -31.597656 25.296875 -33.140625 24.109375 -34.078125 C 22.921875 -35.015625 21.140625 -35.484375 18.765625 -35.484375 C 16.316406 -35.484375 14.398438 -34.984375 13.015625 -33.984375 C 12.117188 -33.335938 11.671875 -32.472656 11.671875 -31.390625 C 11.671875 -30.398438 12.09375 -29.550781 12.9375 -28.84375 C 14 -27.957031 16.578125 -27.03125 20.671875 -26.0625 C 24.773438 -25.09375 27.804688 -24.085938 29.765625 -23.046875 C 31.734375 -22.015625 33.273438 -20.601562 34.390625 -18.8125 C 35.503906 -17.019531 36.0625 -14.800781 36.0625 -12.15625 C 36.0625 -9.769531 35.394531 -7.53125 34.0625 -5.4375 C 32.726562 -3.351562 30.847656 -1.800781 28.421875 -0.78125 C 25.992188 0.226562 22.96875 0.734375 19.34375 0.734375 C 14.0625 0.734375 10.003906 -0.484375 7.171875 -2.921875 C 4.347656 -5.359375 2.660156 -8.910156 2.109375 -13.578125 Z M 2.109375 -13.578125 "/></g></g></g><g fill="#047857" fill-opacity="1"><g transform="translate(330.147759, 94.499996)"><g><path d="M 0.40625 -30.25 L 8.921875 -30.25 L 16.15625 -8.765625 L 23.21875 -30.25 L 31.5 -30.25 L 20.8125 -1.140625 L 18.90625 4.125 C 18.207031 5.894531 17.539062 7.242188 16.90625 8.171875 C 16.269531 9.097656 15.535156 9.851562 14.703125 10.4375 C 13.878906 11.019531 12.863281 11.472656 11.65625 11.796875 C 10.457031 12.117188 9.097656 12.28125 7.578125 12.28125 C 6.035156 12.28125 4.523438 12.117188 3.046875 11.796875 L 2.328125 5.53125 C 3.585938 5.769531 4.71875 5.890625 5.71875 5.890625 C 7.582031 5.890625 8.957031 5.34375 9.84375 4.25 C 10.738281 3.164062 11.425781 1.773438 11.90625 0.078125 Z M 0.40625 -30.25 "/></g></g></g><g fill="#047857" fill-opacity="1"><g transform="translate(363.285006, 94.499996)"><g><path d="M 31.703125 0 L 23.703125 0 L 23.703125 -15.4375 C 23.703125 -18.695312 23.53125 -20.804688 23.1875 -21.765625 C 22.84375 -22.734375 22.285156 -23.484375 21.515625 -24.015625 C 20.742188 -24.546875 19.816406 -24.8125 18.734375 -24.8125 C 17.347656 -24.8125 16.101562 -24.429688 15 -23.671875 C 13.90625 -22.910156 13.148438 -21.898438 12.734375 -20.640625 C 12.328125 -19.390625 12.125 -17.078125 12.125 -13.703125 L 12.125 0 L 4.125 0 L 4.125 -30.25 L 11.5625 -30.25 L 11.5625 -25.796875 C 14.195312 -29.222656 17.519531 -30.9375 21.53125 -30.9375 C 23.300781 -30.9375 24.914062 -30.613281 26.375 -29.96875 C 27.832031 -29.332031 28.9375 -28.519531 29.6875 -27.53125 C 30.4375 -26.550781 30.957031 -25.429688 31.25 -24.171875 C 31.550781 -22.921875 31.703125 -21.128906 31.703125 -18.796875 Z M 31.703125 0 "/></g></g></g><g fill="#047857" fill-opacity="1"><g transform="translate(399.611858, 94.499996)"><g><path d="M 30.5625 -21.296875 L 22.671875 -19.875 C 22.398438 -21.457031 21.796875 -22.644531 20.859375 -23.4375 C 19.921875 -24.238281 18.703125 -24.640625 17.203125 -24.640625 C 15.210938 -24.640625 13.625 -23.945312 12.4375 -22.5625 C 11.25 -21.1875 10.65625 -18.890625 10.65625 -15.671875 C 10.65625 -12.078125 11.253906 -9.539062 12.453125 -8.0625 C 13.660156 -6.582031 15.28125 -5.84375 17.3125 -5.84375 C 18.832031 -5.84375 20.078125 -6.273438 21.046875 -7.140625 C 22.015625 -8.003906 22.695312 -9.488281 23.09375 -11.59375 L 30.953125 -10.25 C 30.140625 -6.644531 28.570312 -3.921875 26.25 -2.078125 C 23.9375 -0.234375 20.835938 0.6875 16.953125 0.6875 C 12.523438 0.6875 8.992188 -0.707031 6.359375 -3.5 C 3.734375 -6.289062 2.421875 -10.15625 2.421875 -15.09375 C 2.421875 -20.082031 3.738281 -23.96875 6.375 -26.75 C 9.019531 -29.539062 12.59375 -30.9375 17.09375 -30.9375 C 20.769531 -30.9375 23.695312 -30.140625 25.875 -28.546875 C 28.050781 -26.960938 29.613281 -24.546875 30.5625 -21.296875 Z M 30.5625 -21.296875 "/></g></g></g><g clip-path="url(#820af33a0f)"><path fill="#047857" d="M 28.421875 65.910156 L 48.953125 30.355469 L 66.832031 61.328125 C 61.957031 62.304688 57.246094 63.503906 52.746094 64.910156 L 48.953125 58.335938 L 43.171875 68.347656 C 33.601562 72.25 25.265625 77.175781 18.59375 82.933594 Z M 93.609375 61.472656 C 87.8125 42.332031 70.039062 28.394531 49.007812 28.394531 C 23.269531 28.394531 2.402344 49.261719 2.402344 75 C 2.402344 83.824219 4.855469 92.074219 9.113281 99.105469 C 21.1875 77.441406 54.644531 62.644531 93.609375 61.472656 " fill-opacity="1" fill-rule="nonzero"/></g><g clip-path="url(#b662a44641)"><path fill="#0b1f3a" d="M 73.855469 101.46875 L 61.929688 80.816406 L 59.375 76.386719 C 44.648438 82.984375 32.511719 91.671875 24.046875 101.46875 L 10.648438 101.46875 C 19.054688 113.636719 33.101562 121.605469 49.007812 121.605469 C 64.914062 121.605469 78.957031 113.636719 87.367188 101.46875 L 73.855469 101.46875 " fill-opacity="1" fill-rule="nonzero"/></g><g clip-path="url(#a75e9e271a)"><path fill="#0b1f3a" d="M 125.023438 63.492188 C 116.714844 63.308594 108.078125 63.796875 99.261719 65.058594 C 89.855469 66.40625 80.914062 68.527344 72.578125 71.277344 L 88.769531 99.320312 C 93.109375 92.242188 95.613281 83.914062 95.613281 75 C 95.613281 73.820312 95.566406 72.652344 95.480469 71.492188 C 100.253906 69.75 115.355469 64.453125 125.023438 63.492188 " fill-opacity="1" fill-rule="nonzero"/></g></svg>